<?xml version="1.0" encoding="utf-8"?>
<!-- Generator: Adobe Illustrator 23.0.2, SVG Export Plug-In . SVG Version: 6.00 Build 0)  -->
<svg version="1.1" id="Layer_1" xmlns="http://www.w3.org/2000/svg" xmlns:xlink="http://www.w3.org/1999/xlink" x="0px" y="0px"
	 viewBox="0 0 512 512" style="enable-background:new 0 0 512 512;" xml:space="preserve">
<style type="text/css">
	.st0{fill:#713BDB;}
</style>
<g>
	<path class="st0" d="M500.9,289.2c-7.7-2.1-16.2,2.3-18.4,10.6l-0.3,1.3l-34.7-9.3c2.2-11.6,3.3-23.6,3.3-35.8
		c0-12.2-1.1-24.2-3.3-35.8l34.7-9.3l0.3,1.3c2.2,8.3,10.7,12.7,18.4,10.6c8-2.1,12.8-10.4,10.6-18.4l-8.5-31.6
		c-2.1-8-10.4-12.8-18.4-10.6c-8,2.1-12.8,10.4-10.6,18.4l0.3,1.3l-34.7,9.3c-8.1-22.9-20.3-43.8-35.8-61.9l25.5-25.5l0.9,0.9
		c5.9,5.9,15.4,5.9,21.2,0c5.9-5.9,5.9-15.4,0-21.2l-23.1-23.1c-5.9-5.9-15.4-5.9-21.2,0s-5.9,15.4,0,21.2l0.9,0.9l-25.5,25.5
		c-18.1-15.5-39-27.7-61.9-35.8l9.3-34.7l1.3,0.3c8.3,2.2,16.3-2.9,18.4-10.6c2.1-8-2.6-16.2-10.6-18.4l-31.6-8.5
		c-8-2.1-16.2,2.6-18.4,10.6c-2.1,8,2.6,16.2,10.6,18.4l1.3,0.3l-9.3,34.7c-11.6-2.2-23.6-3.3-35.8-3.3s-24.2,1.1-35.8,3.3
		l-9.3-34.7l1.3-0.3c8-2.1,12.8-10.4,10.6-18.4c-2.1-8-10.4-12.8-18.4-10.6L172.9,9c-8,2.1-12.8,10.4-10.6,18.4
		c2.1,7.7,10.1,12.8,18.4,10.6l1.3-0.3l9.3,34.7c-22.9,8.1-43.8,20.3-61.9,35.8l-25.5-25.5l0.9-0.9c5.9-5.9,5.9-15.4,0-21.2
		c-5.9-5.9-15.4-5.9-21.2,0L60.5,83.6c-5.9,5.9-5.9,15.4,0,21.2c5.9,5.9,15.4,5.9,21.2,0l0.9-0.9l25.5,25.5
		c-15.5,18.1-27.7,39-35.8,61.9l-34.7-9.3l0.3-1.3c2.1-8-2.6-16.2-10.6-18.4c-8-2.1-16.2,2.6-18.4,10.6l-8.5,31.6
		c-2.1,8,2.6,16.2,10.6,18.4c7.7,2.1,16.2-2.3,18.4-10.6l0.3-1.3l34.7,9.3c-2.2,11.6-3.3,23.6-3.3,35.8c0,12.2,1.1,24.2,3.3,35.8
		l-34.7,9.3l-0.3-1.3c-2.2-8.3-10.7-12.7-18.4-10.6c-8,2.1-12.8,10.4-10.6,18.4L9,339.1c2.1,8,10.4,12.8,18.4,10.6
		c8-2.1,12.8-10.4,10.6-18.4l-0.3-1.3l34.7-9.3c8.1,22.9,20.3,43.8,35.8,61.9l-25.5,25.5l-0.9-0.9c-5.9-5.9-15.4-5.9-21.2,0
		c-5.9,5.9-5.9,15.4,0,21.2l23.1,23.1c5.9,5.9,15.4,5.9,21.2,0s5.9-15.4,0-21.2l-0.9-0.9l25.5-25.5c18.1,15.5,39,27.7,61.9,35.8
		l-9.3,34.7l-1.3-0.3c-8.3-2.2-16.3,2.9-18.4,10.6c-2.1,8,2.6,16.2,10.6,18.4l31.6,8.5c8,2.1,16.2-2.6,18.4-10.6
		c2.1-8-2.6-16.2-10.6-18.4l-1.3-0.3l9.3-34.7c11.6,2.2,23.6,3.3,35.8,3.3s24.2-1.1,35.8-3.3l9.3,34.7l-1.3,0.3
		c-8,2.1-12.8,10.4-10.6,18.4c2.1,8,10.4,12.8,18.4,10.6l31.6-8.5c8-2.1,12.8-10.4,10.6-18.4c-2.1-7.7-10.1-12.8-18.4-10.6l-1.3,0.3
		l-9.3-34.7c22.9-8.1,43.8-20.3,61.9-35.8l25.5,25.5l-0.9,0.9c-5.9,5.9-5.9,15.4,0,21.2c5.9,5.9,15.4,5.9,21.2,0l23.1-23.1
		c5.9-5.9,5.9-15.4,0-21.2c-5.9-5.9-15.4-5.9-21.2,0l-0.9,0.9l-25.5-25.5c15.5-18.1,27.7-39,35.8-61.9l34.7,9.3l-0.3,1.3
		c-2.1,8,2.6,16.2,10.6,18.4c8,2.1,16.2-2.6,18.4-10.6l8.5-31.6C513.6,299.5,508.9,291.3,500.9,289.2L500.9,289.2z M256,420.8
		c-90.8,0-164.8-73.9-164.8-164.8S165.2,91.2,256,91.2S420.8,165.2,420.8,256S346.8,420.8,256,420.8z"/>
	<circle class="st0" cx="256" cy="143.5" r="15"/>
	<circle class="st0" cx="256" cy="368.5" r="15"/>
	<circle class="st0" cx="223.9" cy="288.1" r="15"/>
	<circle class="st0" cx="288.1" cy="288.1" r="15"/>
	<circle class="st0" cx="288.1" cy="223.9" r="15"/>
	<circle class="st0" cx="223.9" cy="223.9" r="15"/>
	<circle class="st0" cx="368.5" cy="256" r="15"/>
	<circle class="st0" cx="143.5" cy="256" r="15"/>
	<circle class="st0" cx="335.5" cy="176.5" r="15"/>
	<circle class="st0" cx="176.5" cy="335.5" r="15"/>
	<circle class="st0" cx="335.5" cy="335.5" r="15"/>
	<circle class="st0" cx="176.5" cy="176.5" r="15"/>
</g>
</svg>
