<svg id="Layer_1" data-name="Layer 1" xmlns="http://www.w3.org/2000/svg" viewBox="0 0 512 512"><defs><style>.cls-1{fill:#fd413c;}</style></defs><title>covidph</title><path class="cls-1" d="M422.86,451.17l-.43.44L422,452C422.31,451.73,422.59,451.45,422.86,451.17Z" transform="translate(0 0)"/><path class="cls-1" d="M426.14,447.9l-.34.33-.36.37Z" transform="translate(0 0)"/><path class="cls-1" d="M427.11,446.93,427,447C427.11,446.92,427.14,446.89,427.11,446.93Z" transform="translate(0 0)"/><path class="cls-1" d="M420.87,453.16l-.31.32-.27.26Z" transform="translate(0 0)"/><path class="cls-1" d="M421.22,452.82,422,452l-.4.41Z" transform="translate(0 0)"/><path class="cls-1" d="M419.8,454.24l0,0Z" transform="translate(0 0)"/><path class="cls-1" d="M471.54,227.52v8.25H422.76a167.25,167.25,0,0,0-34.59-83.33l34.55-34.55,5.83,5.84c18.88,18.88,47.5-9.73,28.61-28.61l-2.88-2.88c-.11-.12-.22-.22-.33-.33l-.39-.39.19.18-.46-.45-.12-.13-.35-.35-5.3-5.29-.6-.6-30-30c-18.9-18.9-47.54,9.68-28.61,28.61l5.84,5.84-34.55,34.54a167.16,167.16,0,0,0-83.33-34.59V40.46h8.25c26.74,0,26.76-40.46,0-40.46h-57c-26.73,0-26.76,40.46,0,40.46h8.25V89.24a167.29,167.29,0,0,0-83.33,34.59L117.89,89.29l5.84-5.84c18.91-18.9-9.69-47.53-28.61-28.61L89.66,60.3,54.84,95.12C35.93,114,64.6,142.58,83.45,123.73l5.84-5.84,34.54,34.55a167.29,167.29,0,0,0-34.59,83.33H40.46v-8.25c0-26.74-40.46-26.76-40.46,0v57c0,26.73,40.46,26.76,40.46,0v-8.25H89.24a167.29,167.29,0,0,0,34.59,83.33L89.29,394.1l-5.84-5.83c-18.9-18.9-47.54,9.68-28.61,28.61l2.88,2.88,7.36,7.36,30,30c18.9,18.9,47.54-9.68,28.61-28.61l-5.84-5.84,34.55-34.54a167.15,167.15,0,0,0,83.33,34.58v48.79h-8.25c-26.74,0-26.76,40.46,0,40.46h57c26.73,0,26.76-40.46,0-40.46h-8.25V422.75a167.18,167.18,0,0,0,83.33-34.58l34.54,34.54-5.83,5.84c-18.91,18.9,9.76,47.46,28.61,28.61l2.89-2.89.79-.79,1-1,.83-.83,3.37-3.38,1.31-1.3,30.05-30.05c18.9-18.9-9.69-47.53-28.61-28.61l-5.84,5.84-34.54-34.55a167.18,167.18,0,0,0,34.58-83.33h48.79v8.25c0,26.74,40.46,26.76,40.46,0v-57C512,200.78,471.54,200.76,471.54,227.52ZM296.25,191.16a17.69,17.69,0,1,1-17.68,17.68A17.69,17.69,0,0,1,296.25,191.16ZM219.57,269a44.61,44.61,0,1,1,44.61-44.61A44.6,44.6,0,0,1,219.57,269Zm72.86,51a27.51,27.51,0,1,1,27.5-27.5A27.51,27.51,0,0,1,292.43,319.93Z" transform="translate(0 0)"/></svg>