<svg id="Layer_1" data-name="Layer 1" xmlns="http://www.w3.org/2000/svg" viewBox="0 0 1008 267.85"><defs><style>.cls-1,.cls-2{fill:#fd413c;}.cls-2{font-size:209.14px;font-family:SegoeUI-Bold, Segoe UI;font-weight:700;}</style></defs><title>covidph-logo-text</title><path class="cls-1" d="M170.93,458.74l-.17.17-.16.16Z" transform="translate(-9 -250.07)"/><path class="cls-1" d="M172.19,457.49l-.13.12-.14.14Z" transform="translate(-9 -250.07)"/><path class="cls-1" d="M172.56,457.12l0,0Z" transform="translate(-9 -250.07)"/><path class="cls-1" d="M170.17,459.5l-.12.12-.1.1Z" transform="translate(-9 -250.07)"/><path class="cls-1" d="M170.3,459.37l.3-.3-.15.15Z" transform="translate(-9 -250.07)"/><path class="cls-1" d="M169.76,459.91v0S169.74,459.93,169.76,459.91Z" transform="translate(-9 -250.07)"/><path class="cls-1" d="M189.57,373.09v3.16H170.89a64,64,0,0,0-13.24-31.91l13.22-13.23,2.24,2.24c7.23,7.23,18.19-3.73,11-11l-1.11-1.1-.12-.13-.15-.15.07.08-.18-.18,0-.05-.14-.13-2-2-.23-.23L168.64,307c-7.24-7.24-18.2,3.71-11,10.95l2.24,2.24-13.23,13.23a64,64,0,0,0-31.91-13.25V301.46h3.16c10.24,0,10.25-15.49,0-15.49H96.13c-10.24,0-10.25,15.49,0,15.49h3.16v18.68a64,64,0,0,0-31.91,13.25L54.15,320.16l2.23-2.24c7.24-7.23-3.71-18.2-11-10.95l-2.09,2.09L30,322.39c-7.24,7.24,3.74,18.18,11,11l2.23-2.24,13.23,13.23a64,64,0,0,0-13.24,31.91H24.49v-3.16c0-10.23-15.49-10.24-15.49,0v21.82c0,10.23,15.49,10.24,15.49,0v-3.16H43.18a64,64,0,0,0,13.24,31.91L43.19,436.89,41,434.65c-7.24-7.24-18.21,3.71-11,11l1.1,1.1,2.82,2.82L45.43,461c7.23,7.24,18.2-3.71,11-10.95l-2.23-2.24,13.23-13.23a64,64,0,0,0,31.91,13.25v18.68H96.13c-10.24,0-10.25,15.49,0,15.49h21.81c10.24,0,10.25-15.49,0-15.49h-3.16V447.86a64.06,64.06,0,0,0,31.91-13.25l13.23,13.23-2.24,2.24c-7.24,7.23,3.74,18.17,11,10.95l1.11-1.1.3-.31.4-.4.31-.31,1.3-1.3.5-.49,11.5-11.51c7.24-7.24-3.7-18.2-10.95-11l-2.24,2.24-13.23-13.23a64,64,0,0,0,13.25-31.91h18.68v3.16c0,10.23,15.49,10.25,15.49,0V373.09C205.07,362.86,189.57,362.85,189.57,373.09Zm-67.12-13.92a6.77,6.77,0,1,1-6.77,6.77A6.77,6.77,0,0,1,122.45,359.17ZM93.08,389a17.08,17.08,0,1,1,17.08-17.08A17.08,17.08,0,0,1,93.08,389ZM121,408.48A10.53,10.53,0,1,1,131.52,398,10.52,10.52,0,0,1,121,408.48Z" transform="translate(-9 -250.07)"/><text class="cls-2" transform="translate(221.9 177.79)">covidph</text></svg>